<?xml version="1.0" encoding="UTF-8"?>
<svg width="55px" height="32px" viewBox="0 0 55 32" version="1.1" xmlns="http://www.w3.org/2000/svg" xmlns:xlink="http://www.w3.org/1999/xlink">
    <!-- Generator: Sketch 42 (36781) - http://www.bohemiancoding.com/sketch -->
    <title>icon-media</title>
    <desc>Created with Sketch.</desc>
    <defs></defs>
    <g id="Inside-Deal---Deal-Detail" stroke="none" stroke-width="1" fill="none" fill-rule="evenodd">
        <g id="N1CE-Market" transform="translate(-687.000000, -1222.000000)" stroke="#FFFFFF" stroke-width="0.8" fill="#607D8B">
            <g id="Tab-Bar" transform="translate(-280.000000, 1198.000000)">
                <g id="Media" transform="translate(920.000000, 0.000000)">
                    <path d="M100.033459,27.6960481 C98.3785021,24.9735893 94.9440758,24.1813964 92.3624526,25.9266358 C89.7808294,27.6718752 89.0296174,31.2936602 90.6845738,34.0161191 L84.1600364,41.1456572 C82.1591616,39.8608629 79.5899655,40.1500875 77.8913632,41.8513466 L71.3471439,37.2124768 C71.4374955,36.9484348 71.5098464,36.677924 71.5636444,36.4030096 C72.0222347,33.8359545 70.81815,31.2579758 68.6088313,30.0766734 C66.3995126,28.8953709 63.7158885,29.3946274 62.0232424,31.3018441 C60.3305962,33.2090608 60.0356932,36.0659084 61.299553,38.312522 L56.1429051,43.9165258 C54.1993241,42.8491538 51.8428672,43.0827403 50.1219463,44.5133603 C48.4010254,45.9439802 47.6354551,48.3057684 48.1658455,50.5479408 C48.6962359,52.7901133 50.4240196,54.4959865 52.5804879,54.9065999 C52.9052819,54.9681456 53.2345857,54.9993997 53.5645811,55 C56.2571106,54.9945006 58.5604311,52.958706 59.0361389,50.1639523 L59.0361389,50.1639523 C59.2866368,48.7303073 59.0198735,47.2496961 58.2882281,46.0128383 L63.4055123,40.4503457 C63.9320984,40.7642588 64.5038779,40.9851148 65.0981525,41.1041461 C65.4229465,41.1656918 65.7522503,41.1969459 66.0822456,41.1975462 C67.2144256,41.2024536 68.3206618,40.8401601 69.2510255,40.1597677 C69.4014445,40.0396066 69.5459652,39.911448 69.6840265,39.7757897 L76.2282458,44.4042817 C75.5637671,46.4894706 76.0619427,48.7914492 77.5184717,50.3661797 C78.9750007,51.9409101 81.144811,52.5234322 83.1380669,51.8748545 C85.1313227,51.2262768 86.6126438,49.4557274 86.9745427,47.2893059 C87.2045639,45.9076131 86.9528998,44.4848107 86.2659957,43.2834809 L92.7905331,36.1643205 C93.311568,36.4726825 93.8765425,36.6899727 94.4634914,36.8077432 C94.7882854,36.8692888 95.1175892,36.900543 95.4475845,36.9011433 C97.5179235,36.8942574 99.4138155,35.6769849 100.370147,33.7405727 C101.326479,31.8041605 101.185435,29.4681586 100.003936,27.6752925 L100.033459,27.6960481 Z M56.1429051,49.6139297 C55.8981315,51.0518298 54.6334025,52.0396597 53.2577537,51.8674077 C51.8821048,51.6951557 50.8718991,50.4224695 50.9532311,48.964104 C51.0345632,47.5057385 52.1792691,46.3667001 53.5645811,46.365683 C53.7217283,46.3510034 53.8797985,46.3510034 54.0369458,46.365683 C55.4569396,46.634271 56.4031939,48.0637857 56.152746,49.5620407 L56.1429051,49.6139297 Z M67.5780672,37.6275882 C66.65302,38.3096397 65.4175712,38.2895922 64.5128615,37.5778496 C63.6081517,36.8661069 63.2379408,35.6229686 63.594351,34.4935657 C63.9507612,33.3641628 64.9535214,32.6028609 66.0822456,32.6047403 C66.2393929,32.5900607 66.3974631,32.5900607 66.5546103,32.6047403 C67.5882175,32.8179263 68.4000133,33.6635857 68.6148161,34.7508864 C68.8296189,35.838187 68.4055915,36.955355 67.5387035,37.5860771 L67.5780672,37.6275882 Z M84.0813089,46.7600388 C83.8374039,48.1912447 82.5825011,49.1775151 81.2122354,49.0149406 C79.8419696,48.8523661 78.826252,47.596699 78.8900088,46.1441196 C78.9537657,44.6915401 80.0751324,43.5401877 81.4537803,43.5117922 C81.6076618,43.4976143 81.7624226,43.4976143 81.916304,43.5117922 C83.3362978,43.7803802 84.2825522,45.2098949 84.0321043,46.7081499 L84.0813089,46.7600388 Z M98.0357495,31.5358285 C97.7909759,32.9737286 96.5262469,33.9615586 95.1505981,33.7893065 C93.7749492,33.6170545 92.7647435,32.3443683 92.8460755,30.8860028 C92.9274076,29.4276373 94.0721135,28.2885989 95.4574255,28.2875818 C95.611307,28.273404 95.7660677,28.273404 95.9199492,28.2875818 C97.339943,28.5561698 98.2861974,29.9856845 98.0357495,31.4839396 L98.0357495,31.5358285 Z" id="icon-media"></path>
                </g>
            </g>
        </g>
    </g>
</svg>
