<?xml version="1.0" encoding="UTF-8"?>
<svg width="42px" height="42px" viewBox="0 0 42 42" version="1.1" xmlns="http://www.w3.org/2000/svg" xmlns:xlink="http://www.w3.org/1999/xlink">
    <!-- Generator: Sketch 42 (36781) - http://www.bohemiancoding.com/sketch -->
    <title>icon-market</title>
    <desc>Created with Sketch.</desc>
    <defs></defs>
    <g id="Inside-Deal---Deal-Detail" stroke="none" stroke-width="1" fill="none" fill-rule="evenodd">
        <g id="N1CE-Market" transform="translate(-464.000000, -1217.000000)" stroke="#607D8B" stroke-width="0.6" fill="#607D8B">
            <g id="Tab-Bar" transform="translate(-280.000000, 1198.000000)">
                <g id="Market" transform="translate(690.000000, 0.000000)">
                    <path d="M75,20 C63.9497717,20 55,28.9497717 55,40 C55,51.0502283 63.9497717,60 75,60 C86.4063927,60 95,51.4063927 95,40 C95,28.9497717 86.0502283,20 75,20 L75,20 Z M84.9178082,41.7899543 C83.9497717,41.2237443 83.0273973,40.9223744 82.1598174,40.9223744 C80.7260274,40.9223744 79.6575342,41.6894977 78.9360731,42.3013699 C78.6255708,42.5022831 78.2237443,42.8127854 78.0684932,42.8127854 C78.0684932,42.8127854 78.0136986,42.8127854 77.9680365,42.7123288 C77.456621,42.1004566 77.8675799,41.3333333 78.890411,39.7990868 C79.6575342,38.6757991 80.5251142,37.3972603 80.5251142,36.0639269 C80.5251142,35.2968037 80.2694064,34.3287671 79.9589041,33.2511416 C79.6027397,32.0730594 78.9908676,29.8721461 79.5022831,29.5159817 C79.7579909,29.3150685 79.9589041,29.260274 80.2146119,29.260274 C81.2922374,29.260274 82.6164384,30.4840183 83.2283105,31.1050228 C83.4840183,31.3059361 83.8401826,31.716895 84.2511416,32.1826484 C86.0410959,34.173516 87.4748858,35.6621005 88.7990868,35.7077626 L88.8995434,35.7077626 C90.6347032,35.7077626 91.6575342,34.4840183 92.1689498,33.4611872 C92.6255708,34.3287671 93.1917808,36.2191781 93.1917808,40.2648402 C93.1917808,44.2557078 92.2237443,46.6575342 91.7579909,47.6255708 C91.1461187,47.4246575 90.1689498,47.1689498 89.5114155,47.1689498 C89.2557078,47.1689498 89.0547945,47.2237443 88.8995434,47.2694064 C88.2328767,47.4703196 87.7762557,47.8812785 87.3105023,48.2374429 C87.0547945,48.4383562 86.6438356,48.7488584 86.4885845,48.7488584 L86.3881279,48.6940639 C85.9771689,48.3835616 86.0776256,47.3150685 86.1872146,46.3378995 C86.3515982,44.7579909 86.5616438,42.8127854 84.9178082,41.7899543 L84.9178082,41.7899543 Z M66.716895,46.8493151 C66.7716895,48.739726 66.6621005,49.4063927 65.8493151,49.5616438 L65.7945205,49.5616438 C64.6164384,49.5616438 62.7808219,45.9817352 62.3150685,44.7579909 C62.2146119,44.4018265 62.4155251,43.5342466 62.5707763,42.8675799 C62.8812785,41.5890411 63.1826484,40.2557078 62.369863,39.4429224 C62.1141553,39.1872146 61.7579909,39.0319635 61.347032,39.0319635 C60.6347032,39.0319635 59.7579909,39.3881279 58.7899543,39.8538813 C58.0228311,40.1643836 57.1004566,40.5205479 56.6438356,40.5205479 C56.543379,38.4200913 57.6118721,33.8173516 58.8447489,32.3378995 C58.9452055,32.1826484 59.2009132,32.1826484 59.3561644,32.1826484 C60.2237443,32.1826484 61.5022831,32.7945205 62.0136986,33.0045662 C62.4703196,33.2054795 62.7808219,33.6164384 63.0913242,34.1278539 C63.5022831,34.739726 63.9589041,35.4611872 64.9360731,35.7625571 C65.5022831,35.9634703 66.369863,35.8173516 67.2922374,35.6073059 C67.9589041,35.4520548 68.7260274,35.2968037 69.3926941,35.2968037 C69.803653,35.2968037 70.1598174,35.3515982 70.4703196,35.4520548 C70.5707763,35.5068493 70.9269406,35.9086758 71.2374429,37.086758 C71.6940639,38.8219178 71.7488584,40.7214612 71.4383562,41.2328767 C71.1278539,41.6894977 70.3607306,42.0547945 69.5936073,42.4109589 C68.6255708,42.8219178 67.7031963,43.2328767 67.1369863,44.0456621 C66.6621005,44.7579909 66.6621005,45.7808219 66.716895,46.8493151 L66.716895,46.8493151 Z M75,58.4657534 C65.4931507,58.4657534 57.6484018,51.2420091 56.6438356,42 C57.3561644,42 58.3242009,41.6438356 59.347032,41.2328767 C60.1141553,40.9223744 60.9360731,40.6210046 61.3378995,40.6210046 C61.4383562,40.9771689 61.2374429,42 61.0821918,42.56621 C60.826484,43.5342466 60.6255708,44.5114155 60.8812785,45.2785388 C60.8812785,45.3333333 63.0821918,51.1050228 65.7945205,51.1050228 C65.9497717,51.1050228 66.0502283,51.0502283 66.2054795,51.0502283 C68.4520548,50.5936073 68.3515982,48.2922374 68.3059361,46.7579909 C68.2511416,46.0456621 68.2511416,45.1689498 68.4611872,44.8675799 C68.7716895,44.4109589 69.5388128,44.0456621 70.2511416,43.7442922 C71.2191781,43.2876712 72.2420091,42.8767123 72.7534247,41.9543379 C73.5205479,40.6757991 73.0639269,37.5525114 72.4977169,35.9178082 C72.086758,34.7945205 71.630137,34.1826484 71.0182648,33.9269406 C70.5068493,33.7716895 69.9954338,33.6712329 69.3835616,33.6712329 C68.5616438,33.6712329 67.6940639,33.826484 66.9817352,33.9817352 C66.4155251,34.0821918 65.9589041,34.1826484 65.6027397,34.1826484 L65.4018265,34.1826484 C64.9908676,34.0273973 64.7351598,33.7260274 64.3789954,33.1598174 C64.0228311,32.5936073 63.5570776,31.8812785 62.6438356,31.4703196 C61.6210046,31.0593607 60.3972603,30.5479452 59.3196347,30.5479452 L59.173516,30.5479452 C62.4063927,25.1598174 68.2968037,21.543379 75.0182648,21.543379 C82.0593607,21.543379 88.196347,25.5159817 91.3105023,31.3333333 L91.1826484,31.826484 C91.1826484,31.8812785 90.6164384,34.1826484 88.9360731,34.1826484 L88.8812785,34.1826484 C88.1141553,34.1278539 86.2694064,32.1369863 85.4018265,31.1689498 C84.9452055,30.7123288 84.5799087,30.3013699 84.2785388,29.9908676 C83.456621,29.2237443 81.8767123,27.7442922 80.2420091,27.7442922 C79.630137,27.7442922 79.0639269,27.9452055 78.6073059,28.3105023 C77.2739726,29.2785388 77.8949772,31.5342466 78.5068493,33.6803653 C78.7625571,34.5479452 79.0182648,35.5251142 79.0182648,36.0365297 C79.0182648,36.9041096 78.3515982,37.9269406 77.6849315,38.9041096 C76.716895,40.3378995 75.5388128,42.1278539 76.8630137,43.7077626 C77.173516,44.1187215 77.630137,44.3196347 78.086758,44.3196347 C78.6986301,44.3196347 79.2648402,43.9086758 79.8219178,43.4977169 C80.4885845,42.9863014 81.2557078,42.4748858 82.1780822,42.4748858 C82.7899543,42.4748858 83.4018265,42.7305936 84.1232877,43.1415525 C84.890411,43.5981735 84.8356164,44.6210046 84.6894977,46.2100457 C84.5342466,47.5890411 84.43379,49.0776256 85.456621,49.890411 C85.7671233,50.1461187 86.1232877,50.3013699 86.5342466,50.3013699 C87.2465753,50.3013699 87.8127854,49.8447489 88.3242009,49.43379 C88.6803653,49.1232877 89.0365297,48.8219178 89.4018265,48.7214612 L89.5570776,48.7214612 C90.0136986,48.7214612 90.7442922,48.913242 91.3013699,49.0776256 C88.4611872,54.4200913 82.9817352,58.4657534 75,58.4657534 L75,58.4657534 Z" id="icon-market"></path>
                </g>
            </g>
        </g>
    </g>
</svg>
