<svg width="49px" height="48px" viewBox="672 56 49 48" version="1.1" xmlns="http://www.w3.org/2000/svg" xmlns:xlink="http://www.w3.org/1999/xlink">
    <!-- Generator: Sketch 42 (36781) - http://www.bohemiancoding.com/sketch -->
    <desc>Created with Sketch.</desc>
    <defs></defs>
    <g id="Button_Filter" stroke="none" stroke-width="1" fill="none" fill-rule="evenodd" transform="translate(672.000000, 56.000000)">
        <path d="M29.3393333,33.3333333 L18.6726667,33.3333333 C17.9366667,33.3333333 17.3393333,32.736 17.3393333,32 C17.3393333,31.264 17.9366667,30.6666667 18.6726667,30.6666667 L29.3393333,30.6666667 C30.0753333,30.6666667 30.6726667,31.264 30.6726667,32 C30.6726667,32.736 30.0753333,33.3333333 29.3393333,33.3333333 Z" id="Shape" fill="#FFFFFF"></path>
        <path d="M33.3393333,25.3333333 L14.6726667,25.3333333 C13.9366667,25.3333333 13.3393333,24.736 13.3393333,24 C13.3393333,23.264 13.9366667,22.6666667 14.6726667,22.6666667 L33.3393333,22.6666667 C34.0753333,22.6666667 34.6726667,23.264 34.6726667,24 C34.6726667,24.736 34.0753333,25.3333333 33.3393333,25.3333333 Z" id="Shape" fill="#FFFFFF"></path>
        <path d="M37.3393333,17.3333333 L10.6726667,17.3333333 C9.93666667,17.3333333 9.33933333,16.736 9.33933333,16 C9.33933333,15.264 9.93666667,14.6666667 10.6726667,14.6666667 L37.3393333,14.6666667 C38.0753333,14.6666667 38.6726667,15.264 38.6726667,16 C38.6726667,16.736 38.0753333,17.3333333 37.3393333,17.3333333 Z" id="Shape" fill="#FFFFFF"></path>
        <path d="M24.0053333,47.994 C10.7746667,47.994 0.0106666667,37.23 0.0106666667,24 C0.0106666667,10.7693333 10.7746667,0.00533333333 24.0053333,0.00533333333 C37.236,0.00533333333 48,10.7693333 48,24 C48,37.2306667 37.236,47.994 24.0053333,47.994 Z M24.0053333,2.672 C12.2453333,2.672 2.678,12.24 2.67733333,24 C2.67733333,35.76 12.2453333,45.3273333 24.0053333,45.3273333 C35.7653333,45.3273333 45.3333333,35.76 45.3333333,24 C45.3333333,12.24 35.7653333,2.672 24.0053333,2.672 Z" id="Shape" fill="#FFFFFF"></path>
    </g>
</svg>