<?xml version="1.0" encoding="UTF-8"?>
<svg width="58px" height="40px" viewBox="0 0 58 40" version="1.1" xmlns="http://www.w3.org/2000/svg" xmlns:xlink="http://www.w3.org/1999/xlink">
    <!-- Generator: Sketch 42 (36781) - http://www.bohemiancoding.com/sketch -->
    <title>icon-overview</title>
    <desc>Created with Sketch.</desc>
    <defs></defs>
    <g id="Inside-Deal---Deal-Detail" stroke="none" stroke-width="1" fill="none" fill-rule="evenodd">
        <g id="N1CE-People" transform="translate(-47.000000, -1218.000000)" fill="#607D8B">
            <g id="Tab-Bar" transform="translate(1.000000, 1198.000000)">
                <g id="Overview">
                    <g id="icon-overview" transform="translate(46.000000, 20.000000)">
                        <g id="ICN_Idea">
                            <g id="ICN_Overview">
                                <path d="M43.1375,22.9735333 C39.4564333,22.9735333 36.4614583,26.2412986 36.4614583,30.2576467 C36.4614583,30.876236 36.9215917,31.3782795 37.4885417,31.3782795 C38.0554917,31.3782795 38.515625,30.876236 38.515625,30.2576467 C38.515625,27.4767963 40.5887927,25.2147989 43.1375,25.2147989 C43.70445,25.2147989 44.1645833,24.7127554 44.1645833,24.0941661 C44.1645833,23.4755768 43.70445,22.9735333 43.1375,22.9735333 L43.1375,22.9735333 Z" id="Shape"></path>
                                <path d="M6.03411458,30.2576467 C6.03411458,30.876236 6.49424792,31.3782795 7.06119792,31.3782795 C7.62814792,31.3782795 8.08828125,30.876236 8.08828125,30.2576467 C8.08828125,27.4767963 10.1619625,25.2147989 12.7101562,25.2147989 C13.2771062,25.2147989 13.7372396,24.7127554 13.7372396,24.0941661 C13.7372396,23.4755768 13.2771062,22.9735333 12.7101562,22.9735333 C9.02908958,22.9735333 6.03411458,26.2412986 6.03411458,30.2576467 Z" id="Shape"></path>
                                <path d="M56.5287409,24.0694422 C56.5165443,24.0470848 56.5126927,24.0231304 56.4992122,24.0013053 C53.4218138,18.8548386 44.273069,3.38190227 44.273069,3.38190227 C42.6278099,0.45574096 38.4180521,-0.81384149 34.8900208,0.549961544 C32.4571172,1.49057043 30.8696315,3.52456395 30.8189193,5.75178951 C30.8144258,5.78639029 30.8125,7.58030763 30.8125,7.58030763 C30.1821276,7.50045968 29.5395586,7.4525509 28.8867188,7.4525509 C28.2338789,7.4525509 27.5919518,7.50045968 26.9609375,7.58030763 C26.9609375,7.58030763 26.9647891,5.78692261 26.9609375,5.75285415 C26.9108672,3.52509627 25.3169622,1.49110275 22.8840586,0.550493864 C19.3553854,-0.814373809 15.1462695,0.45574096 13.5119232,3.36273876 C13.5119232,3.36273876 1.24405469,24.0779593 1.22608073,24.1152217 C0.521244792,25.5540818 0,27.093018 0,28.7453383 C0,34.909068 6.04695312,39.9240517 13.4804688,39.9240517 C20.9139844,39.9240517 26.9609375,34.909068 26.9609375,28.7453383 L26.9609375,20.2282234 L30.8125,20.2282234 L30.8125,28.7453383 C30.8125,34.909068 36.8600951,39.9240517 44.2929688,39.9240517 C51.7258424,39.9240517 57.7734375,34.909068 57.7734375,28.7453383 C57.7734375,27.1020674 57.3035469,25.5301274 56.5287409,24.0694422 L56.5287409,24.0694422 Z M33.3853437,5.85718881 C33.3872695,4.4130055 34.4034401,3.08699716 35.9748776,2.4796204 C38.2184128,1.611407 40.8984583,2.41946828 41.9569961,4.30121837 L50.5864219,18.8559032 C48.6696276,18.0148381 46.5236654,17.5666249 44.2929687,17.5666249 L44.2923268,17.5666249 C40.6917578,17.5666249 37.3062344,18.7292111 34.7603516,20.840391 C34.2487357,21.2646498 33.796819,21.7235093 33.3802083,22.1994031 L33.3802083,19.7235843 L37.9590742,17.1130886 C37.9552227,17.1098946 37.9532969,17.1082977 37.9494453,17.1051038 C38.3654141,16.8676892 38.5888047,16.4546091 38.4931576,16.0367382 L37.2093034,10.4468491 C37.1553815,10.2136931 37.0096641,10.0023622 36.7946185,9.84586021 C35.7925703,9.11711456 34.6338919,8.54859714 33.3802083,8.14563113 C33.3802083,8.14563113 33.3853437,5.88859567 33.3853437,5.85718881 L33.3853437,5.85718881 Z M22.7081706,16.1793998 C24.4946536,15.183962 26.6322708,14.6388667 28.8867188,14.6388667 C31.1411667,14.6388667 33.2787839,15.183962 35.0652669,16.1793998 L31.6977174,18.0989446 L26.0757201,18.0989446 L22.7081706,16.1793998 L22.7081706,16.1793998 Z M34.7725482,11.219245 L35.3746758,13.8403871 C33.4193659,12.9721737 31.1976562,12.5095879 28.8867187,12.5095879 C26.5757812,12.5095879 24.3534297,12.9721737 22.3987617,13.8403871 L23.0008893,11.219245 C24.6121263,10.1604611 26.6849089,9.58182965 28.8867187,9.58182965 C31.0891706,9.58182965 33.1613112,10.1604611 34.7725482,11.219245 L34.7725482,11.219245 Z M13.4804687,37.794773 C7.46304427,37.794773 2.56770833,33.735303 2.56770833,28.7453383 C2.56770833,23.7553736 7.46304427,19.6959037 13.4804687,19.6959037 C16.3954596,19.6959037 19.1364883,20.6370449 21.1970742,22.3463234 C23.2583021,24.0550696 24.3932292,26.3280746 24.3932292,28.7453383 C24.3932292,33.735303 19.4978932,37.794773 13.4804687,37.794773 L13.4804687,37.794773 Z M23.0130859,20.840391 C20.4665612,18.7292111 17.0810378,17.5666249 13.4798268,17.5666249 C11.2035534,17.5666249 9.06015885,18.0409218 7.17802865,18.8708082 L15.8273542,4.28205486 C16.8749792,2.4200006 19.5537409,1.61193932 21.7985599,2.48015272 C23.3693555,3.08752948 24.3913034,4.41353782 24.3932292,5.85772113 L24.3932292,8.14616345 C23.1395456,8.54912946 21.9808672,9.11711456 20.978819,9.84586021 C20.7637734,10.0023622 20.618056,10.2136931 20.5641341,10.4468491 L19.2802799,16.0367382 C19.1846328,16.4546091 19.4073815,16.8676892 19.8239922,17.1051038 C19.8201406,17.1077654 19.8175729,17.110427 19.8143633,17.1130886 L24.3932292,19.7235843 L24.3932292,22.1994031 C23.9766185,21.7240417 23.5240599,21.2646498 23.0130859,20.840391 L23.0130859,20.840391 Z M44.2929687,37.794773 C38.2755443,37.794773 33.3802083,33.735303 33.3802083,28.7453383 C33.3802083,26.3280746 34.5157773,24.0550696 36.5763633,22.3463234 C38.6369492,20.6370449 41.3779779,19.6959037 44.2929687,19.6959037 C47.2079596,19.6959037 49.9489883,20.6370449 52.0095742,22.3463234 C52.7760352,22.9819131 53.4141107,23.6968184 53.9135299,24.467085 L53.9854258,24.5889862 C54.7794896,25.8580363 55.2057292,27.2740067 55.2057292,28.7453383 C55.2057292,33.735303 50.3103932,37.794773 44.2929687,37.794773 L44.2929687,37.794773 Z" id="Shape"></path>
                            </g>
                        </g>
                    </g>
                </g>
            </g>
        </g>
    </g>
</svg>