<?xml version="1.0" encoding="UTF-8"?>
<svg width="30px" height="48px" viewBox="0 0 30 48" version="1.1" xmlns="http://www.w3.org/2000/svg" xmlns:xlink="http://www.w3.org/1999/xlink">
    <!-- Generator: Sketch 42 (36781) - http://www.bohemiancoding.com/sketch -->
    <title>Defintion of the Day</title>
    <desc>Created with Sketch.</desc>
    <defs></defs>
    <g id="Briefcase---Glossary" stroke="none" stroke-width="1" fill="none" fill-rule="evenodd">
        <g id="Briefcase-Glossary-Selected" transform="translate(-360.000000, -757.000000)" fill="#00CCFF">
            <g id="Defintion-of-the-Day" transform="translate(-5.000000, 266.000000)">
                <g id="Button_Minimise" transform="translate(380.000000, 515.000000) scale(1, -1) translate(-380.000000, -515.000000) translate(365.000000, 491.000000)">
                    <path d="M18.966717,36.9578056 C19.958077,37.9502655 21.5659279,37.9502655 22.5559554,36.9578056 C23.5473154,35.9657905 23.5473154,34.3554342 22.5559554,33.3625294 L12.7366053,23.6188172 L22.5563996,13.8754386 C23.5477595,12.8834236 23.5477595,11.2726224 22.5563996,10.2801624 C22.0611638,9.7841549 21.4109168,9.53548386 20.7615583,9.53548386 C20.1121997,9.53548386 19.4619528,9.7841549 18.966717,10.2801624 L7.44393355,21.821346 C6.4521294,22.8138058 6.4521294,24.4237173 7.44393355,25.4166221 L18.966717,36.9578056 L18.966717,36.9578056 Z" id="Shape" transform="translate(15.000000, 23.618817) scale(-1, -1) rotate(90.000000) translate(-15.000000, -23.618817) "></path>
                </g>
            </g>
        </g>
    </g>
</svg>