<?xml version="1.0" encoding="UTF-8"?>
<svg width="66px" height="40px" viewBox="0 0 66 40" version="1.1" xmlns="http://www.w3.org/2000/svg" xmlns:xlink="http://www.w3.org/1999/xlink">
    <!-- Generator: Sketch 42 (36781) - http://www.bohemiancoding.com/sketch -->
    <title>icon-people</title>
    <desc>Created with Sketch.</desc>
    <defs></defs>
    <g id="Inside-Deal---Deal-Detail" stroke="none" stroke-width="1" fill="none" fill-rule="evenodd">
        <g id="N1CE-People" transform="translate(-273.000000, -1217.000000)" stroke="#FFFFFF" stroke-width="0.5" fill="#607D8B">
            <g id="Tab-Bar" transform="translate(1.000000, 1198.000000)">
                <g id="People" transform="translate(230.000000, 0.000000)">
                    <path d="M90.559252,50.7261713 C89.8816041,48.365776 88.6882794,46.2237555 87.1066396,44.4329429 C88.8862439,42.3145681 91.5476904,40.9646779 94.5247726,40.9646779 C99.8898887,40.9646779 104.238187,45.3370425 104.238187,50.7261713 L90.559252,50.7261713 Z M88.4390932,55.2251098 L61.5595224,55.2251098 C61.5595224,54.6402269 61.6010534,54.065776 61.6723483,53.4975842 C61.7927883,52.5392387 62.0149793,51.610798 62.326462,50.7254758 C62.816528,49.3331625 63.5274007,48.0472548 64.4168568,46.9039165 C65.0204411,46.1305637 65.7050108,45.4218887 66.4601832,44.7959736 C68.783844,42.8737189 71.7567731,41.7185578 75.0003461,41.7185578 C78.2432269,41.7185578 81.2168482,42.8730234 83.540509,44.7959736 C84.2942971,45.4198023 84.9781746,46.1305637 85.5845275,46.9039165 C86.4739836,48.0458638 87.1841641,49.333858 87.6742302,50.7254758 C87.9850207,51.610798 88.2079039,52.5399341 88.329036,53.4975842 C88.400331,54.065776 88.4390932,54.6402269 88.4390932,55.2251098 L88.4390932,55.2251098 Z M45.7604287,50.7261713 C45.7604287,45.3370425 50.1101113,40.9646779 55.4731508,40.9646779 C58.4509253,40.9646779 61.1116795,42.3145681 62.8940526,44.4329429 C61.3096441,46.2237555 60.1177037,48.365776 59.440748,50.7261713 L45.7604287,50.7261713 Z M49.8180098,32.9536603 C49.8180098,29.8143485 52.3500178,27.2717423 55.4731508,27.2717423 C58.596976,27.2717423 61.1282919,29.8157394 61.1282919,32.9536603 C61.1282919,36.0922767 58.5962838,38.6341874 55.4731508,38.6341874 C52.3500178,38.6341874 49.8180098,36.0922767 49.8180098,32.9536603 L49.8180098,32.9536603 Z M67.1765934,30.6342972 C67.1765934,26.2932284 70.6776587,22.7728038 74.9996539,22.7728038 C79.3202648,22.7728038 82.8234066,26.2939239 82.8234066,30.6342972 C82.8234066,34.976757 79.3195726,38.4971816 74.9996539,38.4971816 C70.6776587,38.4964861 67.1765934,34.976757 67.1765934,30.6342972 L67.1765934,30.6342972 Z M88.8696315,32.9536603 C88.8696315,29.8143485 91.4016396,27.2717423 94.5247726,27.2717423 C97.6479056,27.2717423 100.179222,29.8157394 100.179222,32.9536603 C100.179222,36.0922767 97.6472134,38.6341874 94.5247726,38.6341874 C91.4016396,38.6341874 88.8696315,36.0922767 88.8696315,32.9536603 L88.8696315,32.9536603 Z M99.928651,39.4304905 C101.769168,37.8782211 102.940342,35.549817 102.940342,32.9536603 C102.940342,28.2919839 99.1644802,24.499634 94.5240804,24.499634 C89.8843729,24.499634 86.1085106,28.2919839 86.1085106,32.9536603 C86.1085106,35.5491215 87.2796855,37.8782211 89.1195098,39.4304905 C87.5766323,40.1774158 86.2130304,41.2366032 85.1027677,42.5232064 C83.676177,41.375 82.0585436,40.4542094 80.2948595,39.8401171 C83.4546782,37.9964495 85.5852197,34.5601757 85.5852197,30.6342972 C85.5852197,24.7708638 80.8375315,20 74.9996539,20 C69.1638529,20 64.4147803,24.7708638 64.4147803,30.6342972 C64.4147803,34.5601757 66.5439374,37.9971449 69.703064,39.8401171 C67.9414564,40.4542094 66.3231308,41.375 64.895848,42.5232064 C63.7855853,41.2366032 62.420599,40.1774158 60.8777214,39.4304905 C62.7189301,37.8782211 63.8914894,35.549817 63.8914894,32.9536603 C63.8914894,28.2919839 60.1156271,24.499634 55.4731508,24.499634 C50.8313667,24.499634 47.0596576,28.2919839 47.0596576,32.9536603 C47.0596576,35.5491215 48.2308325,37.8782211 50.0706568,39.4304905 C45.8905593,41.4584553 43,45.7598829 43,50.7261713 L43,53.4989751 L45.7604287,53.4989751 L58.9008447,53.4989751 C58.8385481,54.0699488 58.7977093,54.6402269 58.7977093,55.2258053 C58.7977093,56.7572108 60.0339494,58 61.5595224,58 L88.4404776,58 C89.9660506,58 91.2029829,56.7572108 91.2029829,55.2258053 C91.2029829,54.6416179 91.1593753,54.0699488 91.0998475,53.4989751 L104.238187,53.4989751 L107,53.4989751 L107,50.7261713 C107,45.7598829 104.108056,41.4584553 99.928651,39.4304905 L99.928651,39.4304905 Z" id="icon-people"></path>
                </g>
            </g>
        </g>
    </g>
</svg>