<?xml version="1.0" encoding="UTF-8"?>
<svg width="45px" height="40px" viewBox="0 0 45 40" version="1.1" xmlns="http://www.w3.org/2000/svg" xmlns:xlink="http://www.w3.org/1999/xlink">
    <!-- Generator: Sketch 42 (36781) - http://www.bohemiancoding.com/sketch -->
    <title>icon-internals</title>
    <desc>Created with Sketch.</desc>
    <defs></defs>
    <g id="Inside-Deal---Deal-Detail" stroke="none" stroke-width="1" fill="none" fill-rule="evenodd">
        <g id="N1CE-People" transform="translate(-514.000000, -1218.000000)" fill="#607D8B">
            <g id="Tab-Bar" transform="translate(1.000000, 1198.000000)">
                <g id="Internals" transform="translate(460.000000, 0.000000)">
                    <g id="icon-internals" transform="translate(53.000000, 20.000000)">
                        <path d="M22.4838404,39.9085287 C22.278591,39.9085287 22.074015,39.8585536 21.8937905,39.7595012 C21.5629676,39.5777556 21.3616459,39.2567581 21.3616459,38.9110224 L21.3616459,23.7489277 C21.3616459,23.3710723 21.6017955,23.0257357 21.981995,22.8567581 L39.0393516,15.2757107 L40.0430424,17.0601496 L23.6060349,24.3654863 L23.6060349,37.2970574 L38.4190025,30.7135162 L38.4190025,25.6441895 L40.6633915,25.6441895 L40.6633915,31.3299751 C40.6633915,31.7078304 40.4232419,32.0531671 40.0430424,32.2222444 L22.9856858,39.8032918 C22.8273441,39.8737157 22.6554239,39.9085287 22.4838404,39.9085287 Z" id="Shape"></path>
                        <path d="M22.4837282,39.9085287 C22.3122569,39.9085287 22.1403367,39.873616 21.9818828,39.8032918 L4.92452618,32.2222444 C4.54432668,32.0531671 4.30417706,31.7078304 4.30417706,31.3299751 L4.30417706,25.6441895 L6.54856608,25.6441895 L6.54856608,30.7135162 L21.3615337,37.2970574 L21.3615337,24.3654863 L4.92452618,17.0601496 L5.92821696,15.2757107 L22.9855736,22.8567581 C23.3657731,23.0257357 23.6059227,23.3711721 23.6059227,23.7489277 L23.6059227,38.9110224 C23.6059227,39.2567581 23.404601,39.5778554 23.0736658,39.7595012 C22.8935536,39.8586534 22.6889776,39.9085287 22.4837282,39.9085287 Z" id="Shape"></path>
                        <path d="M39.0393516,17.0601496 L22.4838404,9.70214464 L5.92832918,17.0601496 L4.9246384,15.2757107 L21.981995,7.69466334 C22.2978928,7.55421446 22.669788,7.55421446 22.9856858,7.69466334 L40.0430424,15.2757107 L39.0393516,17.0601496 Z" id="Shape"></path>
                        <path d="M40.5448878,16.6140648 L38.537394,15.7217955 L42.2998878,9.03301746 L27.2500249,2.34413965 L23.4875312,9.03301746 L21.4800374,8.14074813 L25.7443766,0.559700748 C26.0215586,0.067032419 26.6956608,-0.132668329 27.2500249,0.11361596 L44.3073815,7.69466334 C44.8617456,7.94104738 45.086409,8.54024938 44.8092269,9.03301746 L40.5448878,16.6140648 Z" id="Shape"></path>
                        <path d="M18.2186035,32.3276808 C18.0499377,32.3276808 17.878803,32.2937656 17.7176559,32.2222444 L0.660299252,24.641197 C0.105935162,24.394813 -0.11872818,23.795611 0.158341646,23.3028429 L4.4226808,15.7217955 L6.43017456,16.6140648 L2.6676808,23.3028429 L17.7175436,29.9916209 L21.4799252,23.3028429 L23.487419,24.1951122 L19.2230798,31.7761596 C19.0265835,32.1256858 18.6302244,32.3276808 18.2186035,32.3276808 Z" id="Shape"></path>
                        <path d="M26.7490773,32.3276808 C26.3374564,32.3276808 25.9410973,32.1256858 25.7443766,31.7761596 L21.4800374,24.1951122 L23.4875312,23.3028429 L27.2500249,29.9916209 L42.2998878,23.3028429 L38.537394,16.6140648 L40.5448878,15.7217955 L44.8092269,23.3028429 C45.086409,23.795611 44.8617456,24.394813 44.3073815,24.641197 L27.2500249,32.2222444 C27.0888778,32.2938653 26.9176309,32.3276808 26.7490773,32.3276808 Z" id="Shape"></path>
                        <path d="M4.4226808,16.6140648 L0.158453865,9.03301746 C-0.11861596,8.54024938 0.106047382,7.94104738 0.660411471,7.69466334 L17.7176559,0.11361596 C17.9838404,-0.0046882793 18.2921072,-0.0241396509 18.5743392,0.0595511222 C18.8566833,0.143142145 19.0900998,0.323092269 19.223192,0.559700748 L23.4875312,8.14074813 L21.4800374,9.03301746 L17.7176559,2.34413965 L2.66790524,9.03311721 L6.43028678,15.7218953 L4.4226808,16.6140648 Z" id="Shape"></path>
                    </g>
                </g>
            </g>
        </g>
    </g>
</svg>