<?xml version="1.0" encoding="UTF-8"?>
<svg width="34px" height="50px" viewBox="0 0 34 50" version="1.1" xmlns="http://www.w3.org/2000/svg" xmlns:xlink="http://www.w3.org/1999/xlink">
    <!-- Generator: Sketch 42 (36781) - http://www.bohemiancoding.com/sketch -->
    <title>ic_bookmark</title>
    <desc>Created with Sketch.</desc>
    <defs></defs>
    <g id="News---Feed" stroke="none" stroke-width="1" fill="none" fill-rule="evenodd">
        <g id="News-Inside" transform="translate(-671.000000, -34.000000)" fill-rule="nonzero" fill="#FFFFFF">
            <g id="icon-bookmark" transform="translate(671.000000, 34.000000)">
                <path d="M4.93548387,0 L4.93548387,6.31593256e-14 L29.0645161,6.31593256e-14 C31.7737787,6.31593256e-14 34,1.95645467 34,4.44444242 L34,47.7777894 C33.9998739,48.3434558 33.8779674,48.9797888 33.4002016,49.4444553 C32.9224358,49.9091217 32.3200435,49.9998439 31.8064516,50.0000106 C31.5865573,50.0004308 31.3716143,49.9338856 31.1895161,49.8090107 L17,40.2256817 L2.81048387,49.8090107 C2.62838566,49.9338856 2.41344272,50.0004308 2.19354839,50.0000106 C1.67995481,49.9998439 1.07756529,49.9091217 0.599798387,49.4444553 C0.122031484,48.9797888 0.000126677419,48.3434558 0,47.7777894 L0,4.44444242 C0,1.95646022 2.22621635,0 4.93548387,0 Z M29.1354786,2.07990412 L5.50584892,2.07990412 C3.81941783,2.07990412 2.07319035,3.72616185 2.07319035,4.84103269 L2.05093104,47.5514452 L16.3944054,37.8223852 C16.7590041,37.5732513 17.2381399,37.5732513 17.6027387,37.8223852 L31.9866542,47.5514452 L31.9866542,4.40698178 C31.9866542,3.29211633 30.8219032,2.07990412 29.1354786,2.07990412 Z" id="ic_bookmark"></path>
            </g>
        </g>
    </g>
</svg>