<svg width="51px" height="15px" viewBox="5 23 51 15" version="1.1" xmlns="http://www.w3.org/2000/svg" xmlns:xlink="http://www.w3.org/1999/xlink">
    <!-- Generator: Sketch 42 (36781) - http://www.bohemiancoding.com/sketch -->
    <desc>Created with Sketch.</desc>
    <defs></defs>
    <path d="M9.50423146,37.22 L9.60567812,37.22 C10.3563834,37.22 10.9853526,36.68 11.2694033,35.5485714 L13.0142857,28.6057143 L14.7388788,35.5485714 C15.0229295,36.68 15.6518987,37.22 16.402604,37.22 L16.5040506,37.22 C17.2547559,37.22 17.8837251,36.68 18.2083544,35.4714286 L20.9474141,25.6228571 C20.9879928,25.4428571 21.0488608,25.0828571 21.0488608,24.8257143 C21.0488608,23.8485714 20.4604702,23.0257143 19.6083183,23.0257143 C18.796745,23.0257143 18.3300904,23.6942857 18.1271971,24.5171429 L16.4228933,31.5628571 L14.6983002,24.5685714 C14.4751175,23.6428571 13.9070163,23 13.1157324,23 L12.9331284,23 C12.1418445,23 11.5737432,23.6428571 11.3505606,24.5685714 L9.64625678,31.5371429 L7.98253165,24.5428571 C7.75934901,23.6428571 7.25211573,23.0257143 6.48112116,23.0257143 C5.56810127,23.0257143 5,23.9 5,24.8 C5,25.1342857 5.08115732,25.52 5.14202532,25.7514286 L7.79992767,35.4714286 C8.12455696,36.68 8.75352622,37.22 9.50423146,37.22 Z M26.5269801,37.22 L26.6284268,37.22 C27.379132,37.22 28.0081013,36.68 28.2921519,35.5485714 L30.0370344,28.6057143 L31.7616275,35.5485714 C32.0456781,36.68 32.6746474,37.22 33.4253526,37.22 L33.5267993,37.22 C34.2775045,37.22 34.9064738,36.68 35.2311031,35.4714286 L37.9701627,25.6228571 C38.0107414,25.4428571 38.0716094,25.0828571 38.0716094,24.8257143 C38.0716094,23.8485714 37.4832188,23.0257143 36.6310669,23.0257143 C35.8194937,23.0257143 35.3528391,23.6942857 35.1499458,24.5171429 L33.445642,31.5628571 L31.7210488,24.5685714 C31.4978662,23.6428571 30.9297649,23 30.138481,23 L29.955877,23 C29.1645931,23 28.5964919,23.6428571 28.3733092,24.5685714 L26.6690054,31.5371429 L25.0052803,24.5428571 C24.7820976,23.6428571 24.2748644,23.0257143 23.5038698,23.0257143 C22.5908499,23.0257143 22.0227486,23.9 22.0227486,24.8 C22.0227486,25.1342857 22.103906,25.52 22.164774,25.7514286 L24.8226763,35.4714286 C25.1473056,36.68 25.7762749,37.22 26.5269801,37.22 Z M43.5497288,37.22 L43.6511754,37.22 C44.4018807,37.22 45.0308499,36.68 45.3149005,35.5485714 L47.059783,28.6057143 L48.7843761,35.5485714 C49.0684268,36.68 49.697396,37.22 50.4481013,37.22 L50.5495479,37.22 C51.3002532,37.22 51.9292224,36.68 52.2538517,35.4714286 L54.9929114,25.6228571 C55.0334901,25.4428571 55.094358,25.0828571 55.094358,24.8257143 C55.094358,23.8485714 54.5059675,23.0257143 53.6538156,23.0257143 C52.8422423,23.0257143 52.3755877,23.6942857 52.1726944,24.5171429 L50.4683906,31.5628571 L48.7437975,24.5685714 C48.5206148,23.6428571 47.9525136,23 47.1612297,23 L46.9786257,23 C46.1873418,23 45.6192405,23.6428571 45.3960579,24.5685714 L43.6917541,31.5371429 L42.0280289,24.5428571 C41.8048463,23.6428571 41.297613,23.0257143 40.5266184,23.0257143 C39.6135986,23.0257143 39.0454973,23.9 39.0454973,24.8 C39.0454973,25.1342857 39.1266546,25.52 39.1875226,25.7514286 L41.845425,35.4714286 C42.1700542,36.68 42.7990235,37.22 43.5497288,37.22 Z" id="www" stroke="none" fill="#FFFFFF" fill-rule="evenodd"></path>
</svg>
