<?xml version="1.0" encoding="UTF-8"?>
<svg width="138px" height="109px" viewBox="0 0 138 109" version="1.1" xmlns="http://www.w3.org/2000/svg" xmlns:xlink="http://www.w3.org/1999/xlink">
    <!-- Generator: Sketch 42 (36781) - http://www.bohemiancoding.com/sketch -->
    <title>Graphic</title>
    <desc>Created with Sketch.</desc>
    <defs></defs>
    <g id="Home---Opportunities" stroke="none" stroke-width="1" fill="none" fill-rule="evenodd">
        <g id="Home-Opportunities-Slim-Nav-'No-Deals'" transform="translate(-305.000000, -612.000000)">
            <g id="Graphic" transform="translate(306.000000, 612.000000)">
                <g id="Pips" transform="translate(99.000000, 87.000000)" fill-rule="nonzero" fill="#607D8B">
                    <path d="M5.67796356,11.1004982 C4.84912602,10.2799336 2.96709414,9.10059624 1.01962486,11.1004982 C-0.927844423,13.1004002 0.402478384,14.926621 1.01962486,15.7648693 C2.44215421,17.6997025 6.43351115,17.2568214 6.7911603,16.9365917 C7.56830772,16.2450032 7.30090721,12.7072428 5.67796356,11.1004982 Z" id="icon-pip"></path>
                    <path d="M36.1556332,15.5725518 C35.3267957,14.7519871 33.4447638,13.5726498 31.4972945,15.5725518 C29.5498253,17.5724538 30.8801481,19.3986745 31.4972945,20.2369228 C32.9198239,22.171756 36.9111808,21.7288749 37.26883,21.4086452 C38.0459774,20.7170567 37.7785769,17.1792963 36.1556332,15.5725518 Z" id="icon-pip-copy" transform="translate(34.082670, 18.082053) rotate(130.000000) translate(-34.082670, -18.082053) "></path>
                    <path d="M27.155017,2.57316804 C26.3261794,1.75260338 24.4441476,0.573266052 22.4966783,2.57316804 C20.549209,4.57307002 21.8795318,6.39929078 22.4966783,7.23753909 C23.9192076,9.17237227 27.9105646,8.72949117 28.2682137,8.40926147 C29.0453611,7.71767298 28.7779606,4.17991261 27.155017,2.57316804 Z" id="icon-pip" transform="translate(25.082053, 5.082670) rotate(40.000000) translate(-25.082053, -5.082670) "></path>
                </g>
                <g id="icon-emptyfruit-bowl">
                    <path d="M5.03646423,77.0163887 C5.03646423,77.0163887 17.0662756,63.4434459 17.0662756,45.2824774 C17.0662756,27.1215089 14.789638,15.6535721 14.789638,15.6535721 C14.789638,15.6535721 25.3782024,15.8028267 30.4095717,15.9316464 C32.6910887,15.9900607 35.6841969,16.0755363 38.1862501,16.1976964 C40.6883032,16.3198564 43.5407282,16.5263364 43.5407282,16.5263364 C43.5407282,16.5263364 42.5335823,21.5858985 41.0160393,27.1411157 C39.4984963,32.696333 38.5365232,35.2518708 37.3208865,38.2650068 C35.2887126,43.3020516 31.2991473,51.7579831 27.1080786,56.4237018 C25.9956431,57.6621237 24.1417196,60.0068534 21.6922841,62.3138277 C20.8549513,63.1024606 18.4235547,64.7741194 15.8779049,67.0078914 C15.1275312,67.6663337 14.038653,68.971189 13.1518376,70.590416 C12.2650223,72.209643 11.8393716,73.1358759 10.9623445,74.131756 C8.87056307,76.5070118 5.03646423,77.0163887 5.03646423,77.0163887 Z" id="Path" fill="#D9FFF5" transform="translate(24.288596, 46.334980) scale(-1, 1) translate(-24.288596, -46.334980) "></path>
                    <path d="M57.2120042,0.302587759 C45.791166,0.302587759 33.3377534,2.24602623 23.0572882,5.02470934 C12.7768231,7.80339246 0.464723482,13.0875533 0.29973535,13.3120759 C0.134747218,13.5365986 0.126995091,15.0611739 0.126995091,15.0611739 C0.126995091,15.0611739 0.406124764,16.7858481 0.714177694,18.2181013 C2.89595463,28.3618987 8.69338374,55.3067595 28.105482,69.1205063 C29.8553497,70.3661519 31.0319849,71.7936203 31.9212098,73.7474177 C33.7885822,77.848 38.0695652,80.8002278 43.3699811,81.6407595 C48.9562193,82.5259494 54.7520605,82.9565823 61.0941399,82.9565823 C67.3742911,82.9565823 74.0355388,82.5291392 81.4637429,81.6503291 C86.9118336,81.0075696 91.4055955,77.8097215 93.1919849,73.3072152 C93.9859357,71.3103544 95.0911153,69.8270633 96.775879,68.498481 C115.031985,54.0962025 121.70276,28.7127848 124.908733,16.5147089 C124.908733,16.5147089 125.604676,14.1934884 125.620113,13.7841772 C125.629681,13.5304997 124.84194,12.3962986 122.187936,11.4787995 C120.25647,10.8110847 101.04437,0.302587759 57.2120042,0.302587759 Z M94.3829112,65.4346076 C93.7525142,65.9338228 93.1808696,66.4601519 92.656862,67.012 C84.1457089,68.9035949 75.5106994,69.8924557 66.9789036,69.9450886 C65.9086578,69.9514684 65.0464272,70.8286835 65.0527788,71.9036709 C65.0591304,72.9738734 65.9261248,73.8383291 66.9916068,73.8383291 C74.5468431,73.7936709 82.1640076,73.0296962 89.7128922,71.5910633 C89.6747826,71.6819747 89.6319093,71.7696962 89.5953875,71.8622025 C88.3345936,75.0361266 85.0476371,77.3057215 81.0127788,77.7842025 C73.7386011,78.6438734 67.2234405,79.0633418 61.0973157,79.0633418 C54.9616635,79.0633418 49.3627221,78.6486582 43.9797353,77.7953671 C39.9655198,77.1573924 36.7754253,75.0377215 35.4495274,72.1253671 C34.2760681,69.5479494 32.6564083,67.5829873 30.350775,65.9433924 C12.1645369,53.0020759 6.6005293,27.1322025 4.50449905,17.393519 C4.38699433,16.8448608 4.28060491,16.3488354 4.18215501,15.907038 C12.494182,18.4747422 27.5354852,23.4700984 58.860022,23.4700984 C90.0146534,23.4700984 110.161196,19.6865902 121.080302,15.8432405 C117.947372,27.751038 111.462382,51.9605823 94.3829112,65.4346076 Z" id="Shape" stroke="#607D8B" stroke-width="0.5" fill="#607D8B" fill-rule="nonzero"></path>
                    <path d="M47.846276,70.7792405 C47.7367108,71.8478481 48.508431,72.8048101 49.5723251,72.9148608 C52.1082042,73.1796203 54.582155,73.388557 56.9274858,73.5368861 C56.9687713,73.5400759 57.0100567,73.5416709 57.0513422,73.5416709 C58.0660113,73.5416709 58.9187146,72.7489873 58.9838185,71.7170633 C59.0505104,70.6436709 58.2390926,69.7202025 57.1704348,69.6516203 C54.8790926,69.506481 52.4559546,69.3023291 49.9708885,69.0439494 C48.9133459,68.9354937 47.9574291,69.709038 47.846276,70.7792405 Z" id="Shape" fill="#607D8B" fill-rule="nonzero"></path>
                    <path d="M13.0534167,13.1237338 C13.0534167,13.1237338 30.3779969,5.1892584 61.1067997,5.1892584 C91.8356025,5.1892584 112.763388,13.1237338 112.763388,13.1237338 C112.763388,13.1237338 86.8868852,18.557655 61.1067997,18.8959744 C35.3267142,19.2342937 13.0534167,13.1237338 13.0534167,13.1237338 Z" id="Path-2" fill="#D9FFF5"></path>
                </g>
            </g>
        </g>
    </g>
</svg>