<?xml version="1.0" encoding="UTF-8"?>
<svg width="20px" height="43px" viewBox="0 0 20 43" version="1.1" xmlns="http://www.w3.org/2000/svg" xmlns:xlink="http://www.w3.org/1999/xlink">
    <!-- Generator: Sketch Beta 43 (38917) - http://www.bohemiancoding.com/sketch -->
    <title>ICON_Expand</title>
    <desc>Created with Sketch Beta.</desc>
    <defs></defs>
    <g id="-Symbols" stroke="none" stroke-width="1" fill="none" fill-rule="evenodd">
        <g id="Button_Expand" transform="translate(-20.000000, -8.000000)" fill="#FFFFFF">
            <g id="ICON_Expand">
                <g transform="translate(20.400000, 8.400000)">
                    <path d="M7.68713022,7.93533624 C7.68713022,7.14794025 7.2316083,6.95193661 6.66969351,7.51106561 L3.30037162,10.8636832 C1.49678813,12.6583249 -1.20882605,9.96612445 0.594757345,8.17148284 L8.37429323,0.487046099 C9.031246,-0.161875949 10.1029828,-0.162821322 10.7659466,0.487046099 L18.6052427,8.17148284 C20.4088261,9.96612445 17.7032119,12.6583249 15.8996284,10.8636832 L12.5306738,7.51106561 C11.9662363,6.94936516 11.5133481,7.1418891 11.5133481,7.93533624 L11.5133481,26.7003976 C11.5133481,26.7147712 11.5128698,34.0646637 11.5128698,34.0646637 C11.5128698,34.8520597 11.9683917,35.0480634 12.5303065,34.4889344 L15.8996284,31.1363167 C17.7032119,29.341675 20.4088261,32.0338755 18.6052427,33.8285172 L10.8257068,41.5129539 C10.168754,42.1618759 9.09701723,42.1628213 8.43405342,41.5129539 L0.594757345,33.8285172 C-1.20882605,32.0338755 1.49678813,29.341675 3.30037162,31.1363167 L6.66932622,34.4889344 C7.23376369,35.0506348 7.68665195,34.8581109 7.68665195,34.0646637 L7.68665195,15.2996024 C7.68665195,15.2852289 7.68713022,7.93533624 7.68713022,7.93533624 Z" id="Shape"></path>
                </g>
            </g>
        </g>
    </g>
</svg>