<svg width="40px" height="40px" viewBox="58 24 40 40" version="1.1" xmlns="http://www.w3.org/2000/svg" xmlns:xlink="http://www.w3.org/1999/xlink">
    <!-- Generator: Sketch 42 (36781) - http://www.bohemiancoding.com/sketch -->
    <desc>Created with Sketch.</desc>
    <defs></defs>
    <path d="M74.8452843,45.092742 C74.3403192,45.760947 72.2782055,47.3017424 72.0292176,47.4509314 C71.8658106,47.5491881 67.9639988,49.8669818 63.0935948,50.9212487 C60.5115135,51.4805147 60.3431169,54.1918659 60.4722209,55.7581294 C60.4747157,55.7873408 60.4753394,55.8165523 60.4753394,55.8457637 C60.4628656,56.6095096 60.5252347,57.8093025 60.6955023,58.4790408 C62.232901,59.2178243 68.5084812,61.9212088 78.0004366,61.9212088 C87.5491478,61.9212088 93.7885539,59.2215421 95.3209631,58.4806342 C95.4793806,57.8560408 95.5448682,56.7699069 95.5429971,56.006161 C95.5261574,55.9259623 95.5205442,55.8436392 95.5274048,55.7602539 C95.6571326,54.1929282 95.4899834,51.4799835 92.9066547,50.9207175 C88.0362506,49.8664507 84.1344389,47.5486569 83.9710318,47.4504003 C83.6885056,47.2811158 81.8894739,45.8090673 81.4285714,45.0209233 C81.4217917,45.0093299 81.4153288,44.9979002 81.4091752,44.9866308 C80.4053723,45.2920416 79.2995308,45.4543852 78.096485,45.4719902 C78.0646767,45.4741147 78.0322448,45.4751769 77.9399385,45.4741147 C77.8819352,45.475708 77.8345347,45.4751769 77.783392,45.4719902 C76.7281482,45.4565481 75.7476915,45.3297469 74.8452843,45.092742 Z M72.7528195,44.2707957 C72.0991029,43.9142503 71.5036039,43.478966 70.968319,42.96565 C67.2267959,39.3763626 67.8554766,33.2138143 67.9234589,32.6407393 C68.1642037,28.3636557 70.4862058,26.2678688 72.3934533,25.2629958 C74.5570378,24.1232191 76.8422421,24 77.7247651,24 C77.8133292,24 77.8856774,24.0010622 77.9399385,24.0026556 C77.9948233,24.0010622 78.0671715,24 78.155112,24 C79.0370112,24 81.3228392,24.1232191 83.4864238,25.2629958 C85.3936713,26.2678688 87.7150497,28.3636557 87.9564181,32.6407393 C88.0244005,33.2132832 88.6530811,39.3763626 84.911558,42.9651189 C84.4819108,43.3772677 84.0134707,43.7391103 83.50727,44.0502897 C84.1356141,44.7355258 85.076041,45.5711425 85.3755842,45.7508266 C85.4117583,45.7720712 89.0865465,47.949119 93.5078929,48.9061915 C96.601401,49.5759298 98.2223742,52.0573075 97.9753925,55.7273246 C97.9797584,55.7565361 97.9816294,55.7862786 97.9822531,55.81549 C97.9897374,56.2462258 98.0003402,58.4498294 97.4882897,59.5492412 C97.3953598,59.7494722 97.231329,59.9199607 97.019274,60.0373375 C96.7267629,60.1993281 89.7258299,64 78.0166525,64 C66.2912592,64 59.2903262,60.1993281 58.9978151,60.0373375 C58.7857601,59.9199607 58.6217293,59.7494722 58.5287993,59.5492412 C58.0323412,58.4838209 58.0273517,56.3795361 58.0342123,55.8595727 C57.7392064,52.1173237 59.3626744,49.5838965 62.4923565,48.9067226 C66.9311663,47.9454012 70.5878674,45.7731335 70.6246652,45.7513577 C70.8859155,45.594644 72.0247328,44.8034817 72.7528195,44.2707957 Z M70.3539833,32.8308791 C70.3471227,32.8871775 69.6729125,38.5977454 72.7969814,41.5895264 C74.0456111,42.7845392 75.7121138,43.37461 77.8919143,43.3942613 C77.9068829,43.3942613 77.9212278,43.3947924 77.9355727,43.3953235 L77.9393148,43.3953235 L77.943057,43.3953235 C77.9574019,43.3947924 77.9723705,43.3942613 77.9867154,43.3942613 C80.1665159,43.3751411 81.8330186,42.7845392 83.0816482,41.5895264 C86.2075882,38.5977454 85.5333781,32.8871775 85.5258938,32.8298169 C85.523399,32.8091033 85.521528,32.7867964 85.5202806,32.7660829 C85.1853584,26.559983 79.7979144,26.0777289 78.155112,26.0777289 C78.080269,26.0777289 78.0241368,26.0793223 77.9879627,26.0803845 C77.9561545,26.0814468 77.9237226,26.0814468 77.8919143,26.0803845 C77.8557402,26.0787912 77.7989843,26.0777289 77.7247651,26.0777289 C76.0813389,26.0777289 70.6938949,26.559983 70.3595965,32.7660829 C70.3589728,32.7878587 70.356478,32.8091033 70.3539833,32.8308791 Z" id="Profile" stroke="none" fill="#607D8B" fill-rule="evenodd" opacity="0.800000012"></path>
</svg>
