<?xml version="1.0" encoding="UTF-8"?>
<svg width="32px" height="48px" viewBox="0 0 32 48" version="1.1" xmlns="http://www.w3.org/2000/svg" xmlns:xlink="http://www.w3.org/1999/xlink">
    <!-- Generator: Sketch 42 (36781) - http://www.bohemiancoding.com/sketch -->
    <title>icon-exit</title>
    <desc>Created with Sketch.</desc>
    <defs></defs>
    <g id="Symbols" stroke="none" stroke-width="1" fill="none" fill-rule="evenodd">
        <g id="icon-exit" transform="translate(0.000000, 8.000000)" fill="#CCF9F1">
            <g id="Shape">
                <path d="M30.7082137,32 C30.3779117,32 30.0472542,31.8737781 29.7951724,31.6216899 L0.378389489,2.20452721 C-0.12612983,1.70070639 -0.12612983,0.882219772 0.378389489,0.378398949 C0.882908808,-0.126132983 1.70030832,-0.126132983 2.20482764,0.378398949 L31.6216105,29.7955617 C32.1261298,30.2993825 32.1261298,31.1178691 31.6216105,31.6216899 C31.3691731,31.8741337 31.0385156,32 30.7082137,32 L30.7082137,32 Z"></path>
                <path d="M0.378393693,31.6216941 C-0.126131231,31.1178789 -0.126131231,30.2994014 0.378393693,29.7955862 L29.7951479,0.378394745 C30.2996728,-0.126131582 31.1170814,-0.126131582 31.6216063,0.378394745 C32.1261312,0.882209969 32.1261312,1.70068749 31.6216063,2.20450272 L2.20449659,31.6216941 C1.9524119,31.8741351 1.62175075,32 1.29144514,32 C0.961139537,32 0.630478381,31.8737795 0.378393693,31.6216941 Z"></path>
            </g>
        </g>
    </g>
</svg>