<svg width="44px" height="41px" viewBox="56 24 44 41" version="1.1" xmlns="http://www.w3.org/2000/svg" xmlns:xlink="http://www.w3.org/1999/xlink">
    <!-- Generator: Sketch 42 (36781) - http://www.bohemiancoding.com/sketch -->
    <desc>Created with Sketch.</desc>
    <defs></defs>
    <path d="M98.167125,29.4064326 L96.33425,29.4064326 C96.33425,28.8093889 95.9233828,28.324842 95.4170391,28.324842 L91.7499141,28.324842 C91.2436563,28.324842 90.8341641,28.8093889 90.8341641,29.4064326 L86.2498281,29.4064326 L86.2498281,26.1632825 C86.2498281,24.9675736 85.4293828,24 84.4168672,24 L71.5831328,24 C70.5707031,24 69.7502578,24.9675736 69.7502578,26.1632825 L69.7502578,29.4064326 L65.1666094,29.4064326 C65.1666094,28.8093889 64.7564297,28.324842 64.2501719,28.324842 L60.5829609,28.324842 C60.0767031,28.324842 59.6665234,28.8093889 59.6665234,29.4064326 L57.8329609,29.4064326 C56.8204453,29.4064326 56,30.3740062 56,31.5679921 L56,61.8368189 C56,63.0324264 56.8204453,64 57.8329609,64 L98.167125,64 C99.1795547,64 100,63.0324264 100,61.8368189 L100,31.5679921 C100,30.3740062 99.1795547,29.4064326 98.167125,29.4064326 L98.167125,29.4064326 Z M71.5831328,26.1632825 L84.4168672,26.1632825 L84.4168672,26.1632825 L84.4168672,26.1632825 L84.4168672,29.4064326 L71.5831328,29.4064326 L71.5831328,26.1632825 L71.5831328,26.1632825 Z M98.167125,61.8368189 L57.8329609,61.8368189 L57.8329609,31.5679921 L98.167125,31.5679921 L98.167125,31.5679921 L98.167125,61.8368189 L98.167125,61.8368189 Z" id="Shape" stroke="none" fill="#607D8B" fill-rule="evenodd" opacity="0.800000012"></path>
</svg>
