<svg width="5px" height="23px" viewBox="14 5 5 23" version="1.1" xmlns="http://www.w3.org/2000/svg" xmlns:xlink="http://www.w3.org/1999/xlink">
    <!-- Generator: Sketch 42 (36781) - http://www.bohemiancoding.com/sketch -->
    <desc>Created with Sketch.</desc>
    <defs></defs>
    <path d="M18.6923077,13.7228928 L18.6923077,25.2641162 C18.6923077,26.0637656 18.5018334,26.6683695 18.1208791,27.077946 C17.7399248,27.4875225 17.2564132,27.6923077 16.6703297,27.6923077 C16.0842462,27.6923077 15.6080604,27.4826467 15.2417582,27.0633183 C14.875456,26.64399 14.6923077,26.0442619 14.6923077,25.2641162 L14.6923077,13.8399141 C14.6923077,13.0500165 14.875456,12.4551643 15.2417582,12.0553396 C15.6080604,11.6555149 16.0842462,11.4556056 16.6703297,11.4556056 C17.2564132,11.4556056 17.7399248,11.6555149 18.1208791,12.0553396 C18.5018334,12.4551643 18.6923077,13.0110098 18.6923077,13.7228928 Z M16.7142857,9.5978928 C16.1575064,9.5978928 15.6813207,9.42723848 15.2857143,9.08592471 C14.8901079,8.74461095 14.6923077,8.26190301 14.6923077,7.63778642 C14.6923077,7.07218075 14.8949919,6.60653824 15.3003663,6.24084493 C15.7057407,5.87515161 16.1770425,5.69230769 16.7142857,5.69230769 C17.2319928,5.69230769 17.6910847,5.85808618 18.0915751,6.18964812 C18.4920655,6.52121006 18.6923077,7.003918 18.6923077,7.63778642 C18.6923077,8.25215119 18.4969495,8.73242121 18.1062271,9.07861088 C17.7155048,9.42480056 17.2515289,9.5978928 16.7142857,9.5978928 Z" id="i" stroke="none" fill="#00EBC2" fill-rule="evenodd"></path>
</svg>