<?xml version="1.0" encoding="UTF-8"?>
<svg width="45px" height="41px" viewBox="0 0 45 41" version="1.1" xmlns="http://www.w3.org/2000/svg" xmlns:xlink="http://www.w3.org/1999/xlink">
    <!-- Generator: Sketch 42 (36781) - http://www.bohemiancoding.com/sketch -->
    <title>icon-news</title>
    <desc>Created with Sketch.</desc>
    <defs></defs>
    <g id="Page-1" stroke="none" stroke-width="1" fill="none" fill-rule="evenodd">
        <g id="Artboard" transform="translate(-129.000000, -130.000000)" fill-rule="nonzero" fill="#8097A3">
            <g id="news" transform="translate(127.000000, 130.000000)">
                <path d="M4.9601436,41 C3.31741393,41 2,39.5361941 2,37.7602646 L2,3.2397354 C2,1.47726819 3.32292322,0 4.9601436,0 L39.5025046,0 C41.1408442,0 42.4792707,1.48028049 42.4792707,3.2397354 L42.4792707,9.7324797 L44.0232338,9.7324797 C45.6615735,9.7324797 47,11.2127602 47,12.9722151 L47,37.7609475 C47,39.2240127 46.087599,40.6246079 44.8175153,41 L4.9601436,41 Z M44.390628,39.9533992 C45.2977645,39.7684517 46,38.8478289 46,37.7609475 L46,12.9722151 C46,11.743832 45.0855647,10.7324797 44.0232338,10.7324797 L41.4792707,10.7324797 L41.4792707,3.2397354 C41.4792707,2.01135234 40.5648354,1 39.5025046,1 L4.9601436,1 C3.90130932,1 3,2.00646475 3,3.2397354 L3,37.7602646 C3,39.0060292 3.89456594,40 4.9601436,40 L44.3175153,40 L44.3175153,40.5 L43.8175153,40.5 L43.8175153,39.9815621 L44.3858526,39.9815621 C44.2901525,39.9911916 44.2742092,39.9950085 44.2581958,40 C44.1497287,40.0501679 44.1074369,40.0825909 44.0662057,40.1283249 L44.2151416,39.9631242 L44.4225591,39.9631242 C44.2960857,39.9924037 44.286759,39.9962736 44.2780179,40 C44.19514,40.0353319 44.1649038,40.0577727 44.1191515,40.1085215 L44.2293586,39.9862789 L44.390628,39.9533992 Z M40.5077726,3.2397354 C40.5077726,2.59087845 40.049911,2.0926163 39.5012733,2.0926163 L4.9601436,2.0926163 C4.41623677,2.0926163 3.9702668,2.58558806 3.9702668,3.2397354 L3.9702668,37.7609475 C3.9702668,38.4205353 4.42170021,38.9278703 4.9601436,38.9278703 L41.0051344,38.9278703 C40.6793734,38.2035689 40.5077726,37.320975 40.5077726,36.2667947 L40.5077726,10.8585583 C40.4911246,10.7792867 40.4911726,10.7003148 40.5077726,10.6210455 L40.5077726,3.2397354 Z M41.5077726,36.2667947 C41.5077726,37.5402936 44.3845233,39.5975513 44.8752456,40.2548724 L42.9864952,40.5268099 L4.6958476,40.5268099 C3.57742732,40.5268099 2.70572818,39.0697417 2.70572818,37.8821891 L2.9702668,2.2397354 C2.9702668,1.05441072 3.8403601,0.0926163 4.9601436,0.0926163 L39.5012733,0.0926163 C40.6219612,0.0926163 41.5077726,1.05658953 41.5077726,2.2397354 L41.5077726,10.6913786 L41.5077726,36.2667947 Z M15.0159026,4.71937381 L15.0937679,4.7132736 L29.3325568,4.7132736 C29.8686984,4.7132736 30.3183058,5.22082678 30.3183058,5.7684592 L30.3183058,14.906146 C30.3183058,15.4559096 29.8666693,15.9428937 29.3325568,15.9428937 L15.1454827,15.9428937 C14.5975168,15.9428937 14.1603492,15.4596651 14.1603492,14.906146 L14.1603492,5.7684592 C14.1603492,5.2624308 14.5212627,4.79735576 15.0159026,4.71937381 Z M15.1603492,5.7684592 L15.1603492,14.906146 C15.1603492,14.9284824 15.1733868,14.9428937 15.1454827,14.9428937 L29.3325568,14.9428937 C29.2968478,14.9428937 29.3183058,14.9197563 29.3183058,14.906146 L29.3183058,5.7684592 C29.3183058,5.74793527 29.2876014,5.7132736 29.3325568,5.7132736 L15.174708,5.7132736 C15.172048,5.72360821 15.1603492,5.74551598 15.1603492,5.7684592 Z M16.1306161,13.8700811 L28.3308008,13.8700811 L28.3308008,6.8045241 L16.1306161,6.8045241 L16.1306161,13.8700811 Z M29.3308008,4.8045241 L29.3308008,15.8700811 L15.1306161,15.8700811 L15.1306161,4.8045241 L29.3308008,4.8045241 Z M42.4786551,36.2661118 C42.4786551,37.8034047 42.7968988,38.4648686 43.3527479,38.7726462 C43.536176,38.8681085 43.6953101,38.9146652 43.814528,38.9271874 L44.0226182,38.9271874 C44.5656441,38.9271874 45.0291175,38.4146945 45.0291175,37.7602646 L45.0291175,12.9715322 C45.0291175,12.3224874 44.5710645,11.8237303 44.0226182,11.8237303 L42.4786551,11.8237303 L42.4786551,36.2661118 Z M44.0226182,10.6382919 C45.1432545,10.6382919 46.2908252,11.8500207 46.2908252,13.0332387 L46.0291175,37.7602646 C46.0291175,38.9458055 45.1416039,40.1884489 44.0226182,40.1884489 L43.7703982,40.1864977 C43.4764773,40.1604547 43.1904975,40.0767877 42.8798291,39.914921 C41.9625286,39.4073134 41.4786551,38.1403292 41.4786551,36.2661118 L41.4786551,10.6382919 L44.0226182,10.6382919 Z M15.144564,19.6574217 L29.2118891,19.6561673 C29.7597508,19.6561673 30.1964068,20.1392481 30.1964068,20.6922322 C30.1964068,21.2442168 29.7627021,21.7474178 29.2118891,21.7474178 L15.3075546,21.7457513 C14.7809838,21.7888512 14.2980892,21.3479386 14.2308793,20.7805856 C14.1967309,20.2307075 14.5959413,19.6963565 15.144564,19.6574217 Z M7.27149737,24.3935118 L7.3507185,24.3871959 L19.4414991,24.3871959 C19.9865863,24.3871959 20.4438708,24.8692677 20.4438708,25.4232608 C20.4438708,25.9886256 19.97115,26.4995373 19.4414991,26.4606914 L7.54309145,26.455523 C6.99288035,26.5352532 6.48877528,26.0966407 6.4182513,25.5128206 C6.38630527,24.9957357 6.76501564,24.4747865 7.27149737,24.3935118 Z M24.8602987,24.3925259 L24.9331109,24.3871959 L37.0060376,24.3871959 C37.5506217,24.3871959 38.0084092,24.8693995 38.0084092,25.4232608 C38.0084092,25.9886256 37.5356884,26.4995373 37.0060376,26.4606914 L25.1080791,26.4555471 C24.5474468,26.536595 24.0335183,26.0801121 24.0037269,25.5453802 C23.9352079,25.0092959 24.3268735,24.4710426 24.8602987,24.3925259 Z M7.27149757,29.1259061 L7.3507185,29.1195903 L19.4414991,29.1195903 C19.9865862,29.1195903 20.4438708,29.6016621 20.4438708,30.1556551 C20.4438708,30.7219051 19.9697709,31.2334381 19.4414991,31.19172 L7.54564244,31.1861753 C6.99392457,31.2690311 6.48866663,30.8294154 6.41826101,30.2440059 C6.3862102,29.7278585 6.76534955,29.2071271 7.27149757,29.1259061 Z M24.859027,29.1251092 L24.9331109,29.1195903 L37.0066532,29.1195903 C37.5512372,29.1195903 38.0090249,29.6017939 38.0090249,30.1556551 C38.0090249,30.7219051 37.534925,31.2334381 37.0066532,31.19172 L25.1112401,31.1862011 C24.5491484,31.2704148 24.0340801,30.8129196 24.0045495,30.2780074 C23.9344427,29.7432159 24.3263767,29.2049117 24.859027,29.1251092 Z M7.27421088,33.8571898 L7.3507185,33.8513017 L19.4414991,33.8513017 C19.9868237,33.8513017 20.4438708,34.3322852 20.4438708,34.8873666 C20.4438708,35.4517499 19.9707304,35.9622477 19.4414991,35.9234315 L7.54564244,35.9178868 C6.99417578,36.0007049 6.48887612,35.560205 6.41813743,34.9736587 C6.38736428,34.4426887 6.76369758,33.936237 7.27421088,33.8571898 Z M24.8615721,33.856446 L24.9331109,33.8513017 L37.0066532,33.8513017 C37.5514753,33.8513017 38.0090249,34.3324165 38.0090249,34.8873666 C38.0090249,35.4517499 37.5358845,35.9622477 37.0066532,35.9234315 L25.1112401,35.9179126 C24.5493743,36.0020924 24.0341772,35.5436003 24.0040088,35.0054524 C23.9368367,34.4564465 24.3250491,33.9340084 24.8615721,33.856446 Z" id="ICON_Articles-Copy"></path>
            </g>
        </g>
    </g>
</svg>