<?xml version="1.0" encoding="UTF-8"?>
<svg width="45px" height="41px" viewBox="0 0 45 41" version="1.1" xmlns="http://www.w3.org/2000/svg" xmlns:xlink="http://www.w3.org/1999/xlink">
    <!-- Generator: Sketch 42 (36781) - http://www.bohemiancoding.com/sketch -->
    <title>icon-home</title>
    <desc>Created with Sketch.</desc>
    <defs></defs>
    <g id="Page-1" stroke="none" stroke-width="1" fill="none" fill-rule="evenodd">
        <g id="Artboard" transform="translate(-182.000000, -130.000000)" fill-rule="nonzero" fill="#8097A3">
            <g id="home" transform="translate(180.000000, 130.000000)">
                <path d="M4.83893833,23.5418517 C3.69551425,23.5418517 2.69365463,22.9262497 2.23739016,21.9315606 C1.77528319,20.9241346 1.99905865,19.7971274 2.81080445,19.0128463 L21.1156926,1.34107698 C22.0093087,0.475992856 23.2137599,0 24.4988207,0 C25.7838815,0 26.9883328,0.475992856 27.8814307,1.3405761 L46.1887876,19.0123611 C47.0008322,19.7941289 47.2249755,20.9237793 46.7627051,21.9315606 C46.3064406,22.9262497 45.304581,23.5418517 44.1611569,23.5418517 L41.9331023,23.5418517 C41.6982364,23.5418517 41.520287,23.707026 41.520287,23.8891356 L41.520287,38.1312493 C41.520287,39.7211474 40.1425242,41 38.4683302,41 L31.3400279,41 C29.665834,41 28.2880711,39.7211474 28.2880711,38.1312493 L28.2880711,30.794955 C28.2880711,30.4852973 27.9997006,30.217629 27.6274215,30.217629 L21.3726737,30.217629 C20.9981719,30.217629 20.7095703,30.4851212 20.7095703,30.794955 L20.7095703,38.1312493 C20.7095703,39.7211474 19.3318075,41 17.6576135,41 L10.5293112,41 C8.85511725,41 7.47735443,39.7211474 7.47735443,38.1312493 L7.47735443,23.8891356 C7.47735443,23.707026 7.29940507,23.5418517 7.06453913,23.5418517 L4.83893833,23.5418517 Z M4.5065123,20.6251221 C4.38510206,20.7418786 4.35975245,20.8695164 4.42496704,21.0117209 C4.49404845,21.162718 4.64067259,21.2527047 4.83893833,21.2527047 L7.06453913,21.2527047 C8.60132008,21.2527047 9.86620783,22.4267856 9.86620783,23.8891356 L9.86620783,38.1312493 C9.86620783,38.4401227 10.1562678,38.7085753 10.5293112,38.7085753 L17.6600673,38.7085753 C18.0323464,38.7085753 18.3207169,38.440907 18.3207169,38.1312493 L18.3207169,30.794955 C18.3207169,29.2034851 19.6977001,27.9262043 21.3726737,27.9262043 L27.6274215,27.9262043 C29.3032904,27.9262043 30.6793783,29.2043504 30.6793783,30.794955 L30.6793783,38.1312493 C30.6793783,38.4401227 30.9694383,38.7085753 31.3424817,38.7085753 L38.470784,38.7085753 C38.8430631,38.7085753 39.1314336,38.440907 39.1314336,38.1312493 L39.1314336,23.8891356 C39.1314336,22.4267856 40.3963214,21.2527047 41.9331023,21.2527047 L44.1611569,21.2527047 C44.3602753,21.2527047 44.5047563,21.1641267 44.5745938,21.0128931 C44.6384254,20.8724154 44.612671,20.7429652 44.493607,20.627423 L26.1855716,2.95498346 C25.7427313,2.5270425 25.1463638,2.2914247 24.4988207,2.2914247 C23.8517196,2.2914247 23.2547686,2.52677968 22.8118945,2.95287524 L4.5065123,20.6251221 Z" id="icon_home"></path>
            </g>
        </g>
    </g>
</svg>